<?xml version="1.0" encoding="utf-8"?><svg xmlns="http://www.w3.org/2000/svg" xmlns:xlink="http://www.w3.org/1999/xlink" width="1280" height="669" preserveAspectRatio="xMidYMid" viewBox="0 0 1280 669" style="z-index:1;margin-right:-2px;display:block;background-repeat-y:initial;background-repeat-x:initial;background-color:rgb(255, 255, 255);animation-play-state:paused" ><g transform="" style="animation-play-state:paused" ><linearGradient id="lg-0.8564154332902796" x1="0" x2="1" y1="0" y2="0" style="animation-play-state:paused" ><stop stop-color="#093852" offset="0" style="animation-play-state:paused" ></stop>

  
<stop stop-color="#7bb4d4" offset="1" style="animation-play-state:paused" ></stop></linearGradient>
<path d="M 0 0 L 0 644.011 Q 128 547.137 256 502.85 T 512 464.934 T 768 455.94 T 1024 397.308 T 1280 310.731 L 1280 0 Z" fill="url(#lg-0.8564154332902796)" opacity="0.4" style="opacity:0.4;animation-play-state:paused" ></path>
<path d="M 0 0 L 0 621.993 Q 128 563.591 256 526.676 T 512 483.629 T 768 446.709 T 1024 308.721 T 1280 294.324 L 1280 0 Z" fill="url(#lg-0.8564154332902796)" opacity="0.4" style="opacity:0.4;animation-play-state:paused" ></path>
<path d="M 0 0 L 0 645.403 Q 128 553.295 256 528.227 T 512 487.668 T 768 471.127 T 1024 359.819 T 1280 311.251 L 1280 0 Z" fill="url(#lg-0.8564154332902796)" opacity="0.4" style="opacity:0.4;animation-play-state:paused" ></path>
<path d="M 0 0 L 0 609.94 Q 128 517.169 256 497.095 T 512 494.736 T 768 378.19 T 1024 345.809 T 1280 241.056 L 1280 0 Z" fill="url(#lg-0.8564154332902796)" opacity="0.4" style="opacity:0.4;animation-play-state:paused" ></path>
<path d="M 0 0 L 0 618.979 Q 128 570.89 256 527.934 T 512 436.216 T 768 406.081 T 1024 360.851 T 1280 281.507 L 1280 0 Z" fill="url(#lg-0.8564154332902796)" opacity="0.4" style="opacity:0.4;animation-play-state:paused" ></path></g></svg>