<?xml version="1.0" encoding="utf-8"?><svg xmlns="http://www.w3.org/2000/svg" xmlns:xlink="http://www.w3.org/1999/xlink" width="1280" height="699" preserveAspectRatio="xMidYMid" viewBox="0 0 1280 699" style="z-index:1;margin-right:-2px;display:block;background-repeat-y:initial;background-repeat-x:initial;background-color:rgb(255, 255, 255);animation-play-state:paused" ><g transform="" style="animation-play-state:paused" ><linearGradient id="lg-0.08013110020617664" x1="0" x2="1" y1="0" y2="0" style="animation-play-state:paused" ><stop stop-color="#457879" offset="0" style="animation-play-state:paused" ></stop>

  
<stop stop-color="#00ffff" offset="1" style="animation-play-state:paused" ></stop></linearGradient>
<path d="M 0 0 L 0 599.054 Q 128 531.353 256 508.593 T 512 549.968 T 768 358.468 T 1024 374.297 T 1280 244.629 L 1280 0 Z" fill="url(#lg-0.08013110020617664)" opacity="0.4" style="opacity:0.4;animation-play-state:paused" ></path>
<path d="M 0 0 L 0 602.917 Q 128 570.399 256 540.995 T 512 514.753 T 768 467.446 T 1024 340.049 T 1280 308.399 L 1280 0 Z" fill="url(#lg-0.08013110020617664)" opacity="0.4" style="opacity:0.4;animation-play-state:paused" ></path>
<path d="M 0 0 L 0 605.063 Q 128 575.583 256 544.126 T 512 518.533 T 768 472.418 T 1024 403.373 T 1280 332.07 L 1280 0 Z" fill="url(#lg-0.08013110020617664)" opacity="0.4" style="opacity:0.4;animation-play-state:paused" ></path>
<path d="M 0 0 L 0 601.457 Q 128 582.343 256 556.274 T 512 459.13 T 768 469.724 T 1024 333.28 T 1280 334.595 L 1280 0 Z" fill="url(#lg-0.08013110020617664)" opacity="0.4" style="opacity:0.4;animation-play-state:paused" ></path>
<path d="M 0 0 L 0 629.038 Q 128 554.963 256 515.837 T 512 534.545 T 768 411.052 T 1024 358.237 T 1280 287.282 L 1280 0 Z" fill="url(#lg-0.08013110020617664)" opacity="0.4" style="opacity:0.4;animation-play-state:paused" ></path></g></svg>